{"title":"Metallica 2014-06-09 Pinkpop H.264 TS StreamMetallica 2014-06-0","uid":10423387,"size":2301587983,"categoryP":"video","categoryS":"music_videos","magnet":"?xt=urn:btih:8dccab492a857c2f404704a303553230677946d3&amp;dn=Metallica+2014-06-09+Pinkpop+H.264+TS+Stream%5CMetallica+2014-06-0&amp;tr=udp%3A%2F%2Ftracker.openbittorrent.com%3A80&amp;tr=udp%3A%2F%2Fopen.demonii.com%3A1337&amp;tr=udp%3A%2F%2Ftracker.coppersurfer.tk%3A6969&amp;tr=udp%3A%2F%2Fexodus.desync.com%3A6969","seeders":1,"leechers":2,"uploader":"DharmaWorkMan","files":1,"time":1403669614,"description":"Metallica at Pinkpop june,9 \n\n49mins 46sec of there set was televised \n\n\nFormat                                   : MPEG-4\nFormat profile                           : Base Media / Version 2\nCodec ID                                 : mp42\nFile size                                : 2.14 GiB\nDuration                                 : 49mn 46s\nOverall bit rate mode                    : Variable\nOverall bit rate                         : 6 165 Kbps\nEncoded date                             : UTC 2014-06-24 15:32:29\nTagged date                              : UTC 2014-06-25 00:01:10\nWriting application                      : HandBrake 0.9.9 2013052900\n\nVideo\nID                                       : 1\nFormat                                   : AVC\nFormat/Info                              : Advanced Video Codec\nFormat profile                           : &lt;a class=&quot;__cf_email__&quot; href=&quot;/cdn-cgi/l/email-protection&quot; data-cfemail=&quot;1f577678775f532b312e&quot;&gt;[email&amp;#160;protected]&lt;/a&gt;&lt;script cf-hash='f9e31' type=&quot;text/javascript&quot;&gt;\n/* &lt;![CDATA[ */!function(){try{var t=&quot;currentScript&quot;in document?document.currentScript:function(){for(var t=document.getElementsByTagName(&quot;script&quot;),e=t.length;e--;)if(t[e].getAttribute(&quot;cf-hash&quot;))return t[e]}();if(t&amp;&amp;t.previousSibling){var e,r,n,i,c=t.previousSibling,a=c.getAttribute(&quot;data-cfemail&quot;);if(a){for(e=&quot;&quot;,r=parseInt(a.substr(0,2),16),n=2;a.length-n;n+=2)i=parseInt(a.substr(n,2),16)^r,e+=String.fromCharCode(i);e=document.createTextNode(e),c.parentNode.replaceChild(e,c)}}}catch(u){}}();/* ]]&gt; */&lt;/script&gt;\nFormat settings, CABAC                   : Yes\nFormat settings, ReFrames                : 4 frames\nCodec ID                                 : avc1\nCodec ID/Info                            : Advanced Video Coding\nDuration                                 : 49mn 46s\nBit rate                                 : 6 000 Kbps\nWidth                                    : 1 896 pixels\nHeight                                   : 1 080 pixels\nDisplay aspect ratio                     : 16:9\nFrame rate mode                          : Variable\nFrame rate                               : 25.000 fps\nMinimum frame rate                       : 12.500 fps\nMaximum frame rate                       : 25.000 fps\nColor space                              : YUV\nChroma subsampling                       : 4:2:0\nBit depth                                : 8 bits\nScan type                                : Progressive\nBits/(Pixel*Frame)                       : 0.117\nStream size                              : 2.09 GiB (97%\nWriting library                          : x264 core 130 r2273 b3065e6\n\n\nAudio\nID                                       : 2\nFormat                                   : AAC\nFormat/Info                              : Advanced Audio Codec\nFormat profile                           : LC\nCodec ID                                 : 40\nDuration                                 : 49mn 46s\nBit rate mode                            : Variable\nBit rate                                 : 160 Kbps\nMaximum bit rate                         : 196 Kbps\nChannel(s)                               : 2 channels\nChannel positions                        : Front: L R\nSampling rate                            : 48.0 KHz\nCompression mode                         : Lossy\nStream size                              : 57.0 MiB (3%)\nLanguage                                 : Dutch\nEncoded date                             : UTC 2014-06-24 15:32:30\nTagged date                              : UTC 2014-06-25 00:01:09\n\n","torrent":{"xt":"urn:btih:8dccab492a857c2f404704a303553230677946d3","amp;dn":"Metallica+2014-06-09+Pinkpop+H.264+TS+Stream%5CMetallica+2014-06-0","amp;tr":["udp%3A%2F%2Ftracker.openbittorrent.com%3A80","udp%3A%2F%2Fopen.demonii.com%3A1337","udp%3A%2F%2Ftracker.coppersurfer.tk%3A6969","udp%3A%2F%2Fexodus.desync.com%3A6969"],"infoHash":"8dccab492a857c2f404704a303553230677946d3","infoHashBuffer":{"type":"Buffer","data":[141,204,171,73,42,133,124,47,64,71,4,163,3,85,50,48,103,121,70,211]},"announce":[],"urlList":[]}}